<svg width="60" height="70" viewBox="0 0 60 70" fill="none" xmlns="http://www.w3.org/2000/svg">
<path d="M25.5011 2.65784V6.79365L24.4706 7.03479L23.0005 7.53167L21.5853 8.15277L20.225 8.9054L18.9266 9.78225L17.7106 10.776L16.5771 11.8721L15.5466 13.0851L14.6054 14.3784L13.7879 15.7521L13.0803 17.199L12.4895 18.7042L12.0223 20.2606L11.6926 21.8536L11.4934 23.4757L11.4315 25.1052L11.3628 27.9477L11.1636 30.7901L10.8201 33.618L10.3461 36.4166L9.74153 39.1933L8.99958 41.9335L8.13397 44.6225L7.1447 47.2676L6.02491 49.8544L4.78146 52.3753L3.42121 54.8232L1.94418 57.2053L0.357235 59.4997L0.116788 59.9528L0 60.457L0.0137398 60.9684L0.171748 61.4726L0.446544 61.9038L0.817519 62.2326L1.26406 62.4445L1.75183 62.5176H19.0709L19.5105 63.6502L20.0807 64.7462L20.7677 65.7692L21.5578 66.7118L22.444 67.5521L23.4058 68.2829L24.4363 68.882L25.5354 69.3716L26.669 69.7223L27.8369 69.9269L29.0185 70L30.2001 69.9269L31.368 69.7223L32.5084 69.3716L33.6007 68.882L34.6312 68.2829L35.5999 67.5521L36.4792 66.7118L37.2692 65.7692L37.9562 64.7462L38.5264 63.6502L38.9661 62.5176H56.2852L56.7729 62.4445L57.2195 62.2326L57.5973 61.9038L57.8721 61.4726L58.0232 60.9684L58.037 60.457L57.9202 59.9528L57.6729 59.4997L56.0928 57.2053L54.6158 54.8232L53.2555 52.3753L52.0189 49.8544L50.8923 47.2676L49.903 44.6225L49.0374 41.9335L48.2955 39.1933L47.684 36.4166L47.2169 33.618L46.8734 30.7901L46.6742 27.9477L46.6055 25.1052L46.5368 23.4757L46.3375 21.8536L46.0078 20.2606L45.5475 18.7042L44.9567 17.199L44.2491 15.7521L43.4247 14.3784L42.4904 13.0851L41.453 11.8721L40.3264 10.776L39.1035 9.78225L37.8051 8.9054L36.4449 8.15277L35.0297 7.53167L33.5732 7.03479L32.5359 6.79365V2.65784H25.5011ZM29.0185 10.1403L30.3993 10.2134L31.7665 10.4326L33.1061 10.7906L34.4045 11.2802L35.648 11.9086L36.8364 12.6612L37.9494 13.5381L38.973 14.5246L39.8936 15.6133L40.7179 16.7898L41.4324 18.0466L42.0164 19.3765L42.4835 20.7648L42.8201 22.1824L43.0194 23.6365L43.0881 25.1052L43.1499 27.8527L43.3285 30.6002L43.6239 33.333L44.0361 36.0439L44.5651 38.7403L45.2177 41.4001L45.9803 44.0306L46.8528 46.6173L47.8352 49.1602L48.9275 51.6519L50.1297 54.0925L51.4281 56.4673L52.8365 58.7763H5.20052L6.60198 56.4673L7.90726 54.0925L9.1095 51.6519L10.2018 49.1602L11.1842 46.6173L12.0636 44.0306L12.8192 41.4001L13.465 38.7403L14.0009 36.0439L14.4199 33.333L14.7085 30.6002L14.894 27.8527L14.9489 25.1052L15.0176 23.6365L15.2237 22.1824L15.5535 20.7648L16.0206 19.3765L16.6046 18.0466L17.319 16.7898L18.1434 15.6133L19.0709 14.5246L20.0945 13.5381L21.2005 12.6612L22.3822 11.9086L23.6325 11.2802L24.9378 10.7906L26.2705 10.4326L27.6376 10.2134L29.0185 10.1403ZM22.9386 62.5176H35.0984L35.0297 62.6637L34.4801 63.4967L33.8206 64.2493L33.0717 64.8924L32.2542 65.4185L31.3749 65.8277L30.4543 66.1053L29.4994 66.2442H28.5376L27.5896 66.1053L26.669 65.8277L25.7828 65.4185L24.9652 64.8924L24.2233 64.2493L23.5638 63.4967L23.0073 62.6637L22.9386 62.5176Z" fill="#222222"/>
<ellipse cx="44.2104" cy="16.7037" rx="15.7895" ry="16.7037" fill="url(#paint0_linear_629_7530)"/>
<defs>
<linearGradient id="paint0_linear_629_7530" x1="44.2104" y1="0" x2="44.2104" y2="33.4075" gradientUnits="userSpaceOnUse">
<stop stop-color="#65A3F6"/>
<stop offset="1" stop-color="#3B5F90"/>
</linearGradient>
</defs>
</svg>
