<svg width="479" height="77" viewBox="0 0 479 77" fill="none" xmlns="http://www.w3.org/2000/svg">
<path d="M66.7429 66V16.5455H87.1719C90.8745 16.5455 94.0701 17.2699 96.7585 18.7188C99.4631 20.1515 101.548 22.1558 103.013 24.7315C104.478 27.2912 105.21 30.2694 105.21 33.6662C105.21 37.0791 104.462 40.0653 102.964 42.625C101.483 45.1686 99.3665 47.1406 96.6136 48.5412C93.8608 49.9418 90.5928 50.642 86.8097 50.642H74.2045V41.2244H84.5881C86.3911 41.2244 87.8963 40.9105 89.1037 40.2827C90.3272 39.6548 91.2528 38.7775 91.8807 37.6506C92.5085 36.5076 92.8224 35.1794 92.8224 33.6662C92.8224 32.1368 92.5085 30.8168 91.8807 29.706C91.2528 28.5791 90.3272 27.7098 89.1037 27.098C87.8802 26.4863 86.375 26.1804 84.5881 26.1804H78.696V66H66.7429ZM110.378 66V38.7273H117.711V43.4858H117.995C118.492 41.7931 119.327 40.5147 120.499 39.6506C121.67 38.7746 123.02 38.3366 124.547 38.3366C124.926 38.3366 125.334 38.3603 125.772 38.4077C126.21 38.455 126.595 38.5201 126.926 38.603V45.3146C126.571 45.2081 126.08 45.1134 125.452 45.0305C124.825 44.9477 124.251 44.9062 123.73 44.9062C122.617 44.9062 121.623 45.1489 120.747 45.6342C119.883 46.1077 119.196 46.7706 118.688 47.6229C118.19 48.4751 117.942 49.4576 117.942 50.5703V66H110.378ZM141.996 66.5327C139.191 66.5327 136.776 65.9645 134.752 64.8281C132.74 63.6799 131.189 62.0582 130.1 59.9631C129.011 57.8561 128.466 55.3643 128.466 52.4879C128.466 49.6825 129.011 47.2204 130.1 45.1016C131.189 42.9827 132.722 41.3314 134.699 40.1477C136.687 38.964 139.019 38.3722 141.694 38.3722C143.494 38.3722 145.169 38.6622 146.719 39.2422C148.282 39.8104 149.643 40.6686 150.803 41.8168C151.975 42.965 152.886 44.4091 153.537 46.1491C154.189 47.8774 154.514 49.9015 154.514 52.2216V54.299H131.485V49.6115H147.394C147.394 48.5225 147.157 47.5578 146.684 46.7173C146.21 45.8769 145.553 45.2199 144.713 44.7464C143.884 44.2611 142.92 44.0185 141.819 44.0185C140.671 44.0185 139.653 44.2848 138.765 44.8175C137.889 45.3383 137.202 46.0426 136.705 46.9304C136.208 47.8063 135.953 48.7829 135.942 49.8601V54.3168C135.942 55.6662 136.19 56.8321 136.687 57.8146C137.196 58.7971 137.912 59.5547 138.836 60.0874C139.759 60.62 140.854 60.8864 142.121 60.8864C142.961 60.8864 143.73 60.768 144.429 60.5312C145.127 60.2945 145.725 59.9394 146.222 59.4659C146.719 58.9924 147.098 58.4124 147.358 57.7259L154.354 58.1875C153.999 59.8684 153.271 61.3362 152.17 62.5909C151.081 63.8338 149.673 64.8045 147.944 65.5028C146.228 66.1894 144.245 66.5327 141.996 66.5327ZM184.144 38.7273L174.609 66H166.086L156.551 38.7273H164.542L170.206 58.2408H170.49L176.136 38.7273H184.144ZM199.565 66.5327C196.759 66.5327 194.344 65.9645 192.32 64.8281C190.308 63.6799 188.757 62.0582 187.668 59.9631C186.579 57.8561 186.035 55.3643 186.035 52.4879C186.035 49.6825 186.579 47.2204 187.668 45.1016C188.757 42.9827 190.29 41.3314 192.267 40.1477C194.256 38.964 196.588 38.3722 199.263 38.3722C201.062 38.3722 202.737 38.6622 204.288 39.2422C205.85 39.8104 207.211 40.6686 208.371 41.8168C209.543 42.965 210.455 44.4091 211.106 46.1491C211.757 47.8774 212.082 49.9015 212.082 52.2216V54.299H189.053V49.6115H204.962C204.962 48.5225 204.726 47.5578 204.252 46.7173C203.779 45.8769 203.122 45.2199 202.281 44.7464C201.453 44.2611 200.488 44.0185 199.387 44.0185C198.239 44.0185 197.221 44.2848 196.333 44.8175C195.457 45.3383 194.771 46.0426 194.273 46.9304C193.776 47.8063 193.522 48.7829 193.51 49.8601V54.3168C193.51 55.6662 193.759 56.8321 194.256 57.8146C194.765 58.7971 195.481 59.5547 196.404 60.0874C197.327 60.62 198.422 60.8864 199.689 60.8864C200.529 60.8864 201.299 60.768 201.997 60.5312C202.696 60.2945 203.293 59.9394 203.79 59.4659C204.288 58.9924 204.666 58.4124 204.927 57.7259L211.923 58.1875C211.567 59.8684 210.839 61.3362 209.739 62.5909C208.65 63.8338 207.241 64.8045 205.513 65.5028C203.796 66.1894 201.814 66.5327 199.565 66.5327ZM224.582 50.233V66H217.018V38.7273H224.227V43.5391H224.547C225.151 41.9529 226.163 40.6982 227.583 39.7749C229.004 38.8397 230.726 38.3722 232.75 38.3722C234.644 38.3722 236.295 38.7865 237.704 39.6151C239.112 40.4437 240.207 41.6274 240.989 43.1662C241.77 44.6932 242.161 46.5161 242.161 48.6349V66H234.597V49.9844C234.608 48.3153 234.182 47.0133 233.318 46.0781C232.454 45.1312 231.264 44.6577 229.749 44.6577C228.731 44.6577 227.832 44.8767 227.05 45.3146C226.281 45.7526 225.677 46.3918 225.239 47.2322C224.813 48.0608 224.594 49.0611 224.582 50.233ZM262.628 38.7273V44.4091H246.204V38.7273H262.628ZM249.933 32.1932H257.497V57.6193C257.497 58.3177 257.604 58.8622 257.817 59.2528C258.03 59.6316 258.326 59.898 258.704 60.0518C259.095 60.2057 259.545 60.2827 260.054 60.2827C260.409 60.2827 260.764 60.2531 261.119 60.1939C261.474 60.1229 261.747 60.0696 261.936 60.0341L263.126 65.6626C262.747 65.781 262.214 65.9171 261.528 66.071C260.841 66.2367 260.006 66.3374 259.024 66.3729C257.201 66.4439 255.603 66.2012 254.23 65.6449C252.869 65.0885 251.809 64.2244 251.052 63.0526C250.294 61.8807 249.921 60.401 249.933 58.6136V32.1932ZM272.225 76.2273C271.267 76.2273 270.367 76.1503 269.526 75.9964C268.698 75.8544 268.011 75.6709 267.467 75.446L269.171 69.7997C270.059 70.072 270.858 70.2199 271.568 70.2436C272.29 70.2673 272.912 70.1016 273.433 69.7464C273.965 69.3913 274.397 68.7876 274.729 67.9354L275.173 66.7812L265.389 38.7273H273.344L278.99 58.7557H279.274L284.974 38.7273H292.982L282.382 68.9474C281.873 70.4152 281.18 71.6937 280.304 72.7827C279.44 73.8835 278.345 74.7299 277.019 75.3217C275.694 75.9254 274.096 76.2273 272.225 76.2273ZM308.296 66.5327C305.538 66.5327 303.153 65.9467 301.14 64.7749C299.14 63.5911 297.595 61.9458 296.506 59.8388C295.417 57.7199 294.873 55.2637 294.873 52.4702C294.873 49.6529 295.417 47.1908 296.506 45.0838C297.595 42.965 299.14 41.3196 301.14 40.1477C303.153 38.964 305.538 38.3722 308.296 38.3722C311.054 38.3722 313.433 38.964 315.434 40.1477C317.446 41.3196 318.997 42.965 320.086 45.0838C321.175 47.1908 321.719 49.6529 321.719 52.4702C321.719 55.2637 321.175 57.7199 320.086 59.8388C318.997 61.9458 317.446 63.5911 315.434 64.7749C313.433 65.9467 311.054 66.5327 308.296 66.5327ZM308.331 60.6733C309.586 60.6733 310.634 60.3182 311.474 59.608C312.315 58.8859 312.948 57.9034 313.374 56.6605C313.812 55.4176 314.031 54.0031 314.031 52.4169C314.031 50.8307 313.812 49.4162 313.374 48.1733C312.948 46.9304 312.315 45.9479 311.474 45.2259C310.634 44.5038 309.586 44.1428 308.331 44.1428C307.065 44.1428 306 44.5038 305.135 45.2259C304.283 45.9479 303.638 46.9304 303.2 48.1733C302.774 49.4162 302.561 50.8307 302.561 52.4169C302.561 54.0031 302.774 55.4176 303.2 56.6605C303.638 57.9034 304.283 58.8859 305.135 59.608C306 60.3182 307.065 60.6733 308.331 60.6733ZM334.202 50.233V66H326.638V38.7273H333.846V43.5391H334.166C334.77 41.9529 335.782 40.6982 337.202 39.7749C338.623 38.8397 340.345 38.3722 342.369 38.3722C344.263 38.3722 345.914 38.7865 347.323 39.6151C348.732 40.4437 349.827 41.6274 350.608 43.1662C351.389 44.6932 351.78 46.5161 351.78 48.6349V66H344.216V49.9844C344.228 48.3153 343.801 47.0133 342.937 46.0781C342.073 45.1312 340.884 44.6577 339.368 44.6577C338.35 44.6577 337.451 44.8767 336.67 45.3146C335.9 45.7526 335.296 46.3918 334.858 47.2322C334.432 48.0608 334.213 49.0611 334.202 50.233Z" fill="white"/>
<path d="M28.5 9C12.7599 9 0 21.7599 0 37.5C0 53.2401 12.7599 66 28.5 66C44.2401 66 57 53.2401 57 37.5C57 21.7599 44.2401 9 28.5 9ZM28.5 63.9643C13.908 63.9643 2.03571 52.092 2.03571 37.5C2.03571 22.908 13.908 11.0357 28.5 11.0357C43.092 11.0357 54.9643 22.908 54.9643 37.5C54.9643 52.092 43.092 63.9643 28.5 63.9643ZM30.5357 57.8571C30.5357 58.9809 29.6237 59.8929 28.5 59.8929C27.3763 59.8929 26.4643 58.9809 26.4643 57.8571C26.4643 56.7334 27.3763 55.8214 28.5 55.8214C29.6237 55.8214 30.5357 56.7334 30.5357 57.8571ZM28.5 13.0714C26.2546 13.0714 24.4286 14.8975 24.4286 17.1429C24.4286 19.3883 26.2546 21.2143 28.5 21.2143C30.7454 21.2143 32.5714 19.3883 32.5714 17.1429C32.5714 14.8975 30.7454 13.0714 28.5 13.0714ZM28.5 19.1786C27.3763 19.1786 26.4643 18.2666 26.4643 17.1429C26.4643 16.0191 27.3763 15.1071 28.5 15.1071C29.6237 15.1071 30.5357 16.0191 30.5357 17.1429C30.5357 18.2666 29.6237 19.1786 28.5 19.1786ZM48.8571 33.4286C46.6118 33.4286 44.7857 35.2546 44.7857 37.5C44.7857 39.7454 46.6118 41.5714 48.8571 41.5714C51.1025 41.5714 52.9286 39.7454 52.9286 37.5C52.9286 35.2546 51.1025 33.4286 48.8571 33.4286ZM48.8571 39.5357C47.7334 39.5357 46.8214 38.6237 46.8214 37.5C46.8214 36.3763 47.7334 35.4643 48.8571 35.4643C49.9809 35.4643 50.8929 36.3763 50.8929 37.5C50.8929 38.6237 49.9809 39.5357 48.8571 39.5357ZM12.2143 37.5C12.2143 35.2546 10.3883 33.4286 8.14286 33.4286C5.89746 33.4286 4.07143 35.2546 4.07143 37.5C4.07143 39.7454 5.89746 41.5714 8.14286 41.5714C10.3883 41.5714 12.2143 39.7454 12.2143 37.5ZM6.10714 37.5C6.10714 36.3763 7.01914 35.4643 8.14286 35.4643C9.26657 35.4643 10.1786 36.3763 10.1786 37.5C10.1786 38.6237 9.26657 39.5357 8.14286 39.5357C7.01914 39.5357 6.10714 38.6237 6.10714 37.5ZM50.2007 27.3214C50.2007 25.076 48.3747 23.25 46.1293 23.25C43.8839 23.25 42.0579 25.076 42.0579 27.3214C42.0579 29.5668 43.8839 31.3929 46.1293 31.3929C48.3747 31.3929 50.2007 29.5668 50.2007 27.3214ZM44.0936 27.3214C44.0936 26.1977 45.0056 25.2857 46.1293 25.2857C47.253 25.2857 48.165 26.1977 48.165 27.3214C48.165 28.4451 47.253 29.3571 46.1293 29.3571C45.0056 29.3571 44.0936 28.4451 44.0936 27.3214ZM38.6765 15.7993C36.4311 15.7993 34.6051 17.6253 34.6051 19.8707C34.6051 22.1161 36.4311 23.9421 38.6765 23.9421C40.9219 23.9421 42.748 22.1161 42.748 19.8707C42.748 17.6253 40.9219 15.7993 38.6765 15.7993ZM38.6765 21.9064C37.5528 21.9064 36.6408 20.9944 36.6408 19.8707C36.6408 18.747 37.5528 17.835 38.6765 17.835C39.8003 17.835 40.7123 18.747 40.7123 19.8707C40.7123 20.9944 39.8023 21.9064 38.6765 21.9064ZM18.3214 23.9421C20.5668 23.9421 22.3929 22.1161 22.3929 19.8707C22.3929 17.6253 20.5668 15.7993 18.3214 15.7993C16.076 15.7993 14.25 17.6253 14.25 19.8707C14.25 22.1161 16.076 23.9421 18.3214 23.9421ZM18.3214 17.835C19.4451 17.835 20.3571 18.747 20.3571 19.8707C20.3571 20.9944 19.4451 21.9064 18.3214 21.9064C17.1977 21.9064 16.2857 20.9944 16.2857 19.8707C16.2857 18.745 17.1977 17.835 18.3214 17.835ZM10.8707 31.3929C13.1161 31.3929 14.9421 29.5668 14.9421 27.3214C14.9421 25.076 13.1161 23.25 10.8707 23.25C8.62532 23.25 6.79929 25.076 6.79929 27.3214C6.79929 29.5668 8.62532 31.3929 10.8707 31.3929ZM10.8707 25.2857C11.9944 25.2857 12.9064 26.1977 12.9064 27.3214C12.9064 28.4451 11.9944 29.3571 10.8707 29.3571C9.747 29.3571 8.835 28.4451 8.835 27.3214C8.835 26.1977 9.74497 25.2857 10.8707 25.2857ZM10.8707 43.6071C8.62532 43.6071 6.79929 45.4332 6.79929 47.6786C6.79929 49.924 8.62532 51.75 10.8707 51.75C13.1161 51.75 14.9421 49.924 14.9421 47.6786C14.9421 45.4332 13.1161 43.6071 10.8707 43.6071ZM10.8707 49.7143C9.747 49.7143 8.835 48.8023 8.835 47.6786C8.835 46.5549 9.747 45.6429 10.8707 45.6429C11.9944 45.6429 12.9064 46.5549 12.9064 47.6786C12.9064 48.8023 11.9944 49.7143 10.8707 49.7143ZM18.3235 51.0579C16.0781 51.0579 14.252 52.8839 14.252 55.1293C14.252 57.3747 16.0781 59.2007 18.3235 59.2007C20.5689 59.2007 22.3949 57.3747 22.3949 55.1293C22.3949 52.8839 20.5668 51.0579 18.3235 51.0579ZM18.3235 57.165C17.1998 57.165 16.2878 56.253 16.2878 55.1293C16.2878 54.0056 17.1998 53.0936 18.3235 53.0936C19.4472 53.0936 20.3592 54.0056 20.3592 55.1293C20.3592 56.255 19.4472 57.165 18.3235 57.165ZM40.7143 55.1293C40.7143 56.253 39.8023 57.165 38.6786 57.165C37.5549 57.165 36.6429 56.253 36.6429 55.1293C36.6429 54.0056 37.5549 53.0936 38.6786 53.0936C39.8023 53.0936 40.7143 54.0056 40.7143 55.1293ZM48.165 47.6786C48.165 48.8023 47.253 49.7143 46.1293 49.7143C45.0056 49.7143 44.0936 48.8023 44.0936 47.6786C44.0936 46.5549 45.0056 45.6429 46.1293 45.6429C47.255 45.6429 48.165 46.5549 48.165 47.6786Z" fill="white"/>
</svg>
